<?xml version="1.0" encoding="utf-8"?>
<!-- Generator: Adobe Illustrator 19.0.0, SVG Export Plug-In . SVG Version: 6.00 Build 0)  -->
<svg version="1.1" id="Calque_1" xmlns="http://www.w3.org/2000/svg" xmlns:xlink="http://www.w3.org/1999/xlink" x="0px" y="0px"
	 viewBox="0 0 250 250" style="enable-background:new 0 0 250 250;" xml:space="preserve">
<style type="text/css">
	.st0{opacity:0.1;}
	.st1{fill:#E94364;stroke:#5D5C74;stroke-width:8;stroke-linecap:round;stroke-linejoin:round;stroke-miterlimit:10;}
	.st2{fill:#FFFFFF;stroke:#FFFFFF;stroke-width:8;stroke-linecap:round;stroke-linejoin:round;stroke-miterlimit:10;}
</style>
<g id="XMLID_18_">
	<ellipse id="XMLID_25_" class="st0" cx="125" cy="214.7" rx="101.7" ry="17.5"/>
	<g id="XMLID_19_">
		<path id="XMLID_24_" class="st1" d="M198.2,143.5c0,41.4-33.6,71.3-75,71.3s-75-29.8-75-71.3c0-69.4,75-127.5,75-127.5
			S198.2,74,198.2,143.5z"/>
		<path id="XMLID_23_" class="st1" d="M223.1,90.8c0,24.3-19.7,41.8-44.1,41.8c-24.3,0-44-17.5-44-41.8c0-40.8,44-74.9,44-74.9
			S223.1,50,223.1,90.8z"/>
		<g id="XMLID_20_">
			<line id="XMLID_22_" class="st2" x1="161.3" y1="86.4" x2="196.9" y2="86.4"/>
			<line id="XMLID_21_" class="st2" x1="179.1" y1="68.6" x2="179.1" y2="104.2"/>
		</g>
	</g>
</g>
</svg>
