<?xml version="1.0" encoding="utf-8"?>
<!-- Generator: Adobe Illustrator 19.0.0, SVG Export Plug-In . SVG Version: 6.00 Build 0)  -->
<svg version="1.1" id="Calque_1" xmlns="http://www.w3.org/2000/svg" xmlns:xlink="http://www.w3.org/1999/xlink" x="0px" y="0px"
	 viewBox="0 0 250 250" style="enable-background:new 0 0 250 250;" xml:space="preserve">
<style type="text/css">
	.st0{opacity:0.1;enable-background:new    ;}
	.st1{fill:#FFFFFF;}
	.st2{opacity:0.3;fill:#15CA6E;enable-background:new    ;}
	.st3{fill:#15CA6E;}
	.st4{fill:#EDEDED;stroke:#5D5C74;stroke-width:8;stroke-linecap:round;stroke-linejoin:round;stroke-miterlimit:10;}
	.st5{fill:none;stroke:#E94364;stroke-width:8;stroke-linecap:round;stroke-linejoin:round;stroke-miterlimit:10;}
</style>
<ellipse id="XMLID_17_" class="st0" cx="125" cy="217.2" rx="89.7" ry="15.4"/>
<g>
	<g>
		
			<rect x="50.9" y="57" transform="matrix(-0.9324 0.3614 -0.3614 -0.9324 269.0959 106.536)" class="st1" width="147.3" height="42.9"/>
		
			<rect x="50.9" y="57" transform="matrix(-0.9324 0.3614 -0.3614 -0.9324 269.0959 106.536)" class="st2" width="147.3" height="42.9"/>
	</g>
	<g>
		<rect x="51" y="66.9" class="st1" width="147.3" height="100.6"/>
		<rect x="51" y="66.9" class="st2" width="147.3" height="100.6"/>
	</g>
	<g>
		<path class="st3" d="M124.8,93.6c-15.8,0-28.5,10.5-28.5,23.2c0,13,12.7,23.2,28.5,23.2s28.5-10.5,28.5-23.2
			C153.3,104.1,140.6,93.6,124.8,93.6z M124.8,133c-12,0-21.4-7-21.4-15.8s9.5-15.8,21.4-15.8c12,0,21.4,7,21.4,15.8
			S136.8,133,124.8,133z"/>
		<path class="st3" d="M47.8,63v108h154.4V63H47.8z M194.4,163.9H55.2V70.4h139.6v93.5H194.4z"/>
		<path class="st3" d="M186.7,76H62.9v82.3h124.1V76H186.7z M179.7,95.7c-6.3-1.4-11.3-6.3-12.3-12.3h12.3V95.7z M159.6,151.3H90
			c-1.8-9.8-9.5-17.9-19.7-19.3v-30.2c9.8-1.4,17.6-8.8,19.7-18.3h70c1.4,10.2,9.5,18.3,19.7,19.7v28.8
			C169.5,133.3,161.4,141.1,159.6,151.3z M82.3,83.4c-1.8,5.6-6.3,9.8-12,11.3V83.4H82.3z M70,138.9c6,1.4,10.9,6,12.3,12.3H70
			V138.9z M167,151.3c1.4-6,6.3-10.9,12.3-12.3v12.3H167z"/>
	</g>
	<g>
		<polygon class="st3" points="101.3,70.4 98.5,63.3 188.8,26.8 200.8,65.5 193.7,67.9 183.9,37 		"/>
	</g>
	<g>
		<polygon class="st3" points="137.8,70.4 135,63.3 180.7,44 187.8,65.5 180.7,67.9 176.2,54.6 		"/>
	</g>
</g>
<circle class="st4" cx="197.8" cy="161.3" r="39.4"/>
<g>
	<line class="st5" x1="210.3" y1="149.3" x2="186.3" y2="173.3"/>
	<line class="st5" x1="210.3" y1="173.3" x2="186.3" y2="149.3"/>
</g>
</svg>
