<?xml version="1.0" encoding="utf-8"?>
<!-- Generator: Adobe Illustrator 19.0.0, SVG Export Plug-In . SVG Version: 6.00 Build 0)  -->
<svg version="1.1" id="Calque_1" xmlns="http://www.w3.org/2000/svg" xmlns:xlink="http://www.w3.org/1999/xlink" x="0px" y="0px"
	 viewBox="0 0 250 250" style="enable-background:new 0 0 250 250;" xml:space="preserve">
<style type="text/css">
	.st0{opacity:0.1;}
	.st1{fill:#E94364;stroke:#5D5C74;stroke-width:8;stroke-linecap:round;stroke-linejoin:round;stroke-miterlimit:10;}
	.st2{fill:#6EA9DC;stroke:#5D5C74;stroke-width:8;stroke-linecap:round;stroke-linejoin:round;stroke-miterlimit:10;}
</style>
<g>
	<ellipse class="st0" cx="124.4" cy="216.6" rx="112.5" ry="19.3"/>
	<g>
		<g>
			<path class="st1" d="M233.6,72.7c0-30.3-24.4-54.9-54.6-54.9c-30.1,0-54.5,24.5-54.6,54.7c-0.1-30.2-24.5-54.7-54.6-54.7
				c-30.2,0-54.6,24.6-54.6,54.9c0,81.3,108.7,143.6,109.2,143.9C124.4,216.6,233.6,154,233.6,72.7z"/>
			<path class="st2" d="M138.8,169.9c-0.1,0-0.2,0-0.3,0c-2.7-0.1-5-1.8-6-4.3l-25.6-66.3L93,131.7c-1.1,2.5-3.5,4.1-6.2,4.1h-68
				c-3.7,0-6.8-3-6.8-6.8c0-3.7,3-6.8,6.8-6.8h63.5l18.6-43.6c1.1-2.5,3.7-4.2,6.4-4.1c2.8,0,5.2,1.8,6.2,4.3l26.1,67.6l10.2-20.4
				c1.1-2.3,3.5-3.8,6.1-3.8h74.2c3.7,0,6.8,3,6.8,6.8c0,3.7-3,6.8-6.8,6.8h-70l-15.2,30.4C143.7,168.5,141.3,169.9,138.8,169.9z"/>
		</g>
	</g>
</g>
</svg>
