<?xml version="1.0" encoding="utf-8"?>
<!-- Generator: Adobe Illustrator 19.0.0, SVG Export Plug-In . SVG Version: 6.00 Build 0)  -->
<svg version="1.1" id="Calque_1" xmlns="http://www.w3.org/2000/svg" xmlns:xlink="http://www.w3.org/1999/xlink" x="0px" y="0px"
	 viewBox="94 -4 800 800" style="enable-background:new 94 -4 800 800;" xml:space="preserve">
<style type="text/css">
	.st0{fill:#6DAAE2;}
	.st1{opacity:0.2;fill:#212121;}
	.st2{fill:#FAFAFA;}
	.st3{fill:#FF3F62;}
	.st4{fill:#BDBDBD;}
	.st5{fill:#E0E0E0;}
	.st6{opacity:0.2;}
	.st7{fill:#212121;}
	.st8{fill:#E0F7FA;}
	.st9{fill:#546E7A;}
	.st10{fill:#455A64;}
</style>
<g id="Layer_1">
</g>
<g>
	<circle class="st0" cx="522" cy="569.5" r="7.6"/>
	<circle class="st0" cx="640.4" cy="501.2" r="7.6"/>
	<circle class="st0" cx="360" cy="372.4" r="7.6"/>
	<circle class="st0" cx="735.2" cy="215" r="7.6"/>
	<path class="st0" d="M728.4,251.2v-3.3l-6.2-1c-0.4-1.8-1.1-3.5-2.1-5l3.7-5.1l-2.3-2.3l-5.1,3.7c-1.5-1-3.2-1.7-5-2.1l-1-6.2h-3.3
		l-1,6.2c-1.8,0.4-3.5,1.1-5,2.1l-5.1-3.7l-2.3,2.3l3.7,5.1c-1,1.5-1.7,3.2-2.1,5l-6.2,1v3.3l6.2,1c0.4,1.8,1.1,3.5,2.1,5l-3.7,5.1
		l2.3,2.3l5.1-3.7c1.5,1,3.2,1.7,5,2.1l1,6.2h3.3l1-6.2c1.8-0.4,3.5-1.1,5-2.1l5.1,3.7l2.3-2.3l-3.7-5.1c1-1.5,1.7-3.2,2.1-5
		L728.4,251.2z M708.8,257.9c-4.6,0-8.4-3.8-8.4-8.4c0-4.6,3.8-8.4,8.4-8.4c4.6,0,8.4,3.8,8.4,8.4
		C717.2,254.2,713.5,257.9,708.8,257.9z"/>
	<path class="st0" d="M609.6,549.5v-3.3l-6.2-1c-0.4-1.8-1.1-3.5-2.1-5l3.7-5.1l-2.3-2.3l-5.1,3.7c-1.5-1-3.2-1.7-5-2.1l-1-6.2h-3.3
		l-1,6.2c-1.8,0.4-3.5,1.1-5,2.1l-5.1-3.7l-2.3,2.3l3.7,5.1c-1,1.5-1.7,3.2-2.1,5l-6.2,1v3.3l6.2,1c0.4,1.8,1.1,3.5,2.1,5l-3.7,5.1
		l2.3,2.3l5.1-3.7c1.5,1,3.2,1.7,5,2.1l1,6.2h3.3l1-6.2c1.8-0.4,3.5-1.1,5-2.1l5.1,3.7l2.3-2.3l-3.7-5.1c1-1.5,1.7-3.2,2.1-5
		L609.6,549.5z M590.1,556.2c-4.6,0-8.4-3.8-8.4-8.4c0-4.6,3.8-8.4,8.4-8.4s8.4,3.8,8.4,8.4C598.5,552.5,594.7,556.2,590.1,556.2z"
		/>
	<path class="st0" d="M272.1,396.8v-3.3l-6.2-1c-0.4-1.8-1.1-3.5-2.1-5l3.7-5.1l-2.3-2.3l-5.1,3.7c-1.5-1-3.2-1.7-5-2.1l-1-6.2h-3.3
		l-1,6.2c-1.8,0.4-3.5,1.1-5,2.1l-5.1-3.7l-2.3,2.3l3.7,5.1c-1,1.5-1.7,3.2-2.1,5l-6.2,1v3.3l6.2,1c0.4,1.8,1.1,3.5,2.1,5l-3.7,5.1
		l2.3,2.3l5.1-3.7c1.5,1,3.2,1.7,5,2.1l1,6.2h3.3l1-6.2c1.8-0.4,3.5-1.1,5-2.1l5.1,3.7l2.3-2.3l-3.7-5.1c1-1.5,1.7-3.2,2.1-5
		L272.1,396.8z M252.5,403.5c-4.6,0-8.4-3.8-8.4-8.4c0-4.6,3.8-8.4,8.4-8.4c4.6,0,8.4,3.8,8.4,8.4
		C260.9,399.8,257.2,403.5,252.5,403.5z"/>
	<polygon class="st1" points="725.7,373.2 725.9,373.2 644.6,171.1 568.9,138.9 396.9,208.1 518.6,510.6 725.7,427.3 	"/>
	<g>
		<polygon class="st2" points="387.4,198.6 509.1,501.2 735.2,410.3 635.2,161.7 559.4,129.4 		"/>
		<path class="st3" d="M523.3,210c-18.7,7.5-27.7,28.7-20.2,47.4c7.5,18.7,28.7,27.7,47.4,20.2c18.7-7.5,27.7-28.7,20.2-47.4
			C563.2,211.6,542,202.5,523.3,210z M555.2,243.1l-10.3,4.1l4.1,10.3l-11.5,4.6l-4.1-10.3l-10.3,4.1l-4.6-11.5l10.3-4.1l-4.1-10.3
			l11.5-4.6l4.1,10.3l10.3-4.1L555.2,243.1z"/>
		<g>
			
				<rect x="472.9" y="325.9" transform="matrix(0.9278 -0.3732 0.3732 0.9278 -87.5469 210.9221)" class="st4" width="56.3" height="11.4"/>
			
				<rect x="534.2" y="301.2" transform="matrix(0.9278 -0.3732 0.3732 0.9278 -73.9211 232.0099)" class="st4" width="56.3" height="11.4"/>
			
				<rect x="595.4" y="276.6" transform="matrix(0.9278 -0.3732 0.3732 0.9278 -60.2953 253.0978)" class="st4" width="56.3" height="11.4"/>
			
				<rect x="479.8" y="340.4" transform="matrix(0.9278 -0.3732 0.3732 0.9278 -91.4499 219.8077)" class="st4" width="84.4" height="11.4"/>
			
				<rect x="568.9" y="313.9" transform="matrix(0.9278 -0.3732 0.3732 0.9278 -76.8137 242.4618)" class="st4" width="37.9" height="11.4"/>
			
				<rect x="612.8" y="294.5" transform="matrix(0.9278 -0.3732 0.3732 0.9278 -66.0889 259.0582)" class="st4" width="46.5" height="11.4"/>
			
				<rect x="489.6" y="369.9" transform="matrix(0.9278 -0.3732 0.3732 0.9278 -103.6162 215.9043)" class="st4" width="32.4" height="11.4"/>
			
				<rect x="527.3" y="346.3" transform="matrix(0.9278 -0.3732 0.3732 0.9278 -90.5782 236.0861)" class="st4" width="74.4" height="11.4"/>
			
				<rect x="611.3" y="316.1" transform="matrix(0.9278 -0.3732 0.3732 0.9278 -73.9039 261.8918)" class="st4" width="56.3" height="11.4"/>
		</g>
		<g>
			
				<rect x="642.5" y="393.6" transform="matrix(-0.9278 0.3732 -0.3732 -0.9278 1441.8488 519.509)" class="st4" width="56.3" height="11.4"/>
			
				<rect x="581.2" y="418.2" transform="matrix(-0.9278 0.3732 -0.3732 -0.9278 1332.9156 589.8948)" class="st4" width="56.3" height="11.4"/>
			
				<rect x="520" y="442.9" transform="matrix(-0.9278 0.3732 -0.3732 -0.9278 1223.9823 660.2823)" class="st4" width="56.3" height="11.4"/>
			
				<rect x="607.4" y="379.1" transform="matrix(-0.9278 0.3732 -0.3732 -0.9278 1395.9442 499.3456)" class="st4" width="84.4" height="11.4"/>
			
				<rect x="564.9" y="405.5" transform="matrix(-0.9278 0.3732 -0.3732 -0.9278 1278.9304 574.9556)" class="st4" width="37.9" height="11.4"/>
			
				<rect x="512.4" y="424.9" transform="matrix(-0.9278 0.3732 -0.3732 -0.9278 1193.1915 630.3535)" class="st4" width="46.5" height="11.4"/>
			
				<rect x="649.6" y="349.6" transform="matrix(-0.9278 0.3732 -0.3732 -0.9278 1416.1028 436.496)" class="st4" width="32.4" height="11.4"/>
			
				<rect x="570" y="373.2" transform="matrix(-0.9278 0.3732 -0.3732 -0.9278 1311.8641 503.8507)" class="st4" width="74.4" height="11.4"/>
			
				<rect x="504" y="403.3" transform="matrix(-0.9278 0.3732 -0.3732 -0.9278 1178.5601 589.9846)" class="st4" width="56.3" height="11.4"/>
		</g>
		<polygon class="st5" points="635.2,161.7 559.4,129.4 581.2,183.4 		"/>
	</g>
	<path class="st1" d="M503.3,296.4l-80.1-26.7c-3.3-1.1-6.9,0.6-8,3.9l-1.5,4.6c-1.1,3.3,0.7,6.8,4.1,7.9l75.3,25l-72.1-24l-2.7,8.1
		l0,0l-39.5,118.8c-48.9-0.5-94.3,29.5-110.3,77.4c-19.9,59.7,13.6,124.6,74.7,145c61.1,20.4,126.8-11.5,146.7-71.3
		c15.5-46.5-1.4-96.1-38.4-125.4L494,311.6l3.8,1.3c3.3,1.1,6.9-0.6,8-3.9l1.5-4.6C508.5,301.1,506.7,297.5,503.3,296.4z"/>
	<g class="st6">
		<path class="st7" d="M750.8,333.3H724c0-6.1-5-11.1-11.1-11.1c-6.1,0-11.1,5-11.1,11.1h-6.3c-2.3,0-4.2,1.9-4.2,4.2v3.3
			c0,2.3,1.9,4.2,4.2,4.2h2.1v5.7v189.7c0,13.9,11.3,25.2,25.2,25.2c13.9,0,25.2-11.3,25.2-25.2V350.6h0v-5.7h2.7
			c2.3,0,4.2-1.9,4.2-4.2v-3.3C755,335.2,753.1,333.3,750.8,333.3z"/>
		<circle class="st7" cx="716.8" cy="312.4" r="6.1"/>
		<circle class="st7" cx="727.6" cy="302.7" r="3.6"/>
		<circle class="st7" cx="730.7" cy="323.6" r="3.1"/>
		<circle class="st7" cx="739.9" cy="313.6" r="2.1"/>
	</g>
	<path class="st1" d="M397.1,249.6l-0.3-0.1c3.2-6.9,0.6-15.2-6.2-19c-6.8-3.7-15.2-1.5-19.3,4.9l-0.3-0.1c-0.5-0.3-1-0.1-1.3,0.4
		c-0.3,0.5-0.1,1,0.4,1.3l0.3,0.1c-2.1,4.5-1.7,9.6,0.7,13.7l-6.6,12c-0.4,0.7-0.3,1.5,0,2.2L335,318.5l-5.4,18.1l-23,41.8
		c-0.6,1.2-0.2,2.6,0.9,3.2c1.2,0.6,2.6,0.2,3.2-0.9l23-41.8l12.4-14.3l28.4-51.6l0,0l0.8-1.5l0,0l0.1-0.1c1,0.2,2-0.3,2.5-1.2
		l6.7-12.3c4.5-0.3,8.7-2.7,11.2-6.7l0.3,0.1c0.5,0.3,1,0.1,1.3-0.4C397.7,250.5,397.6,249.9,397.1,249.6z"/>
	<g>
		<path class="st8" d="M362,242.8L325.6,309l-5.4,18.1l-23,41.8c-0.6,1.2-0.2,2.6,0.9,3.2c1.2,0.6,2.6,0.2,3.2-0.9l23-41.8
			l12.4-14.3l36.4-66.2L362,242.8z"/>
		<path class="st9" d="M366.2,262.1l-11.1-6.1c-0.6-0.3-0.9-1.1-0.5-1.8l10.4-19l13.4,7.4l-10.4,19
			C367.6,262.2,366.8,262.4,366.2,262.1z"/>
		<circle class="st9" cx="374.2" cy="233.8" r="14.6"/>
		
			<rect x="353.7" y="258.8" transform="matrix(0.8761 0.4822 -0.4822 0.8761 169.8261 -141.403)" class="st5" width="12.6" height="1.7"/>
		<path class="st10" d="M387.6,240.2l-26-14.3c-0.5-0.3-1-0.1-1.3,0.4c-0.3,0.5-0.1,1,0.4,1.3l26,14.3c0.5,0.3,1,0.1,1.3-0.4
			C388.3,241,388.1,240.4,387.6,240.2z"/>
	</g>
	<g>
		
			<ellipse transform="matrix(0.9488 0.3158 -0.3158 0.9488 182.7704 -90.1783)" class="st8" cx="369.6" cy="518.8" rx="116.7" ry="113.9"/>
		
			<rect x="370.9" y="283.7" transform="matrix(0.9488 0.3158 -0.3158 0.9488 149.0691 -108.5507)" class="st8" width="77.1" height="243.9"/>
		<path class="st3" d="M466.2,551c-17,50.9-73.2,78.3-125.4,60.9C288.7,594.5,260,538.9,277,488c0.6-1.6,1.1-3.3,1.8-4.9h184.6
			C472.3,504.3,473.7,528.4,466.2,551z"/>
		<path class="st8" d="M493.9,287l-80.1-26.7c-3.3-1.1-6.9,0.6-8,3.9l-1.5,4.6c-1.1,3.3,0.7,6.8,4.1,7.9l80.1,26.7
			c3.3,1.1,6.9-0.6,8-3.9l1.5-4.6C499,291.6,497.2,288.1,493.9,287z"/>
		
			<rect x="408.1" y="289.7" transform="matrix(0.9488 0.3158 -0.3158 0.9488 115.7032 -126.0052)" class="st5" width="77.1" height="8.5"/>
	</g>
	<g>
		<path class="st8" d="M688.2,335.4v195.5c0,13.9,11.3,25.2,25.2,25.2c13.9,0,25.2-11.3,25.2-25.2V335.4H688.2z"/>
		<path class="st3" d="M696.6,380.9v150c0,9.3,7.6,16.9,16.9,16.9c9.3,0,16.9-7.6,16.9-16.9v-150H696.6z"/>
		<path class="st8" d="M741.4,323.8h-55.3c-2.3,0-4.2,1.9-4.2,4.2v3.3c0,2.3,1.9,4.2,4.2,4.2h55.3c2.3,0,4.2-1.9,4.2-4.2V328
			C745.5,325.7,743.7,323.8,741.4,323.8z"/>
		<rect x="688.2" y="335.4" class="st5" width="50.5" height="5.7"/>
		<circle class="st3" cx="707.3" cy="302.9" r="6.1"/>
		<path class="st3" d="M714.5,323.8c0-6.1-5-11.1-11.1-11.1c-6.1,0-11.1,5-11.1,11.1"/>
		<circle class="st3" cx="718.1" cy="293.2" r="3.6"/>
		<circle class="st3" cx="721.2" cy="314.1" r="3.1"/>
		<circle class="st3" cx="730.4" cy="304.2" r="2.1"/>
	</g>
</g>
</svg>
