<?xml version="1.0" encoding="utf-8"?>
<!-- Generator: Adobe Illustrator 19.0.0, SVG Export Plug-In . SVG Version: 6.00 Build 0)  -->
<svg version="1.1" id="Calque_1" xmlns="http://www.w3.org/2000/svg" xmlns:xlink="http://www.w3.org/1999/xlink" x="0px" y="0px"
	 viewBox="0 0 250 250" style="enable-background:new 0 0 250 250;" xml:space="preserve">
<style type="text/css">
	.st0{opacity:0.1;}
	.st1{fill:#EDEDED;stroke:#5E5C74;stroke-width:8;stroke-linecap:round;stroke-linejoin:round;stroke-miterlimit:10;}
	.st2{fill:#A1DAF8;stroke:#5E5C74;stroke-width:8;stroke-linecap:round;stroke-linejoin:round;stroke-miterlimit:10;}
	.st3{fill:#E94364;}
	.st4{fill:#E94364;stroke:#5D5C74;stroke-width:8;stroke-linecap:round;stroke-linejoin:round;stroke-miterlimit:10;}
</style>
<g id="XMLID_2_">
	<ellipse id="XMLID_17_" class="st0" cx="120" cy="217.2" rx="89.7" ry="15.4"/>
	<g id="XMLID_3_">
		<rect id="XMLID_16_" x="46.8" y="54.1" class="st1" width="143.8" height="163.2"/>
		<rect id="XMLID_15_" x="64" y="70.3" class="st2" width="24.9" height="42.2"/>
		<rect id="XMLID_14_" x="106.2" y="70.3" class="st2" width="25" height="42.2"/>
		<rect id="XMLID_13_" x="148.4" y="70.3" class="st2" width="24.9" height="42.2"/>
		<rect id="XMLID_12_" x="64" y="128" class="st2" width="24.9" height="23.9"/>
		<rect id="XMLID_11_" x="106.2" y="128" class="st2" width="25" height="23.9"/>
		<rect id="XMLID_10_" x="148.4" y="128" class="st2" width="24.9" height="23.9"/>
		<rect id="XMLID_9_" x="64" y="168.4" class="st2" width="24.9" height="23.9"/>
		<rect id="XMLID_8_" x="106.2" y="168.4" class="st2" width="25" height="48.9"/>
		<rect id="XMLID_7_" x="148.4" y="168.4" class="st2" width="24.9" height="23.9"/>
		<rect id="XMLID_6_" x="83.9" y="17.7" class="st1" width="69.6" height="36.3"/>
		<polygon id="XMLID_5_" class="st3" points="124.2,25 116.8,25 116.8,32.4 109.5,32.4 109.5,39.7 116.8,39.7 116.8,47.1 
			124.2,47.1 124.2,39.7 131.6,39.7 131.6,32.4 124.2,32.4 		"/>
		<path id="XMLID_4_" class="st4" d="M219.6,67.1c0,16-13,27.6-29,27.6c-16,0-29-11.6-29-27.6c0-26.9,29-49.4,29-49.4
			S219.6,40.3,219.6,67.1z"/>
	</g>
</g>
</svg>
