<?xml version="1.0" encoding="utf-8"?>
<!-- Generator: Adobe Illustrator 19.0.0, SVG Export Plug-In . SVG Version: 6.00 Build 0)  -->
<svg version="1.1" id="Calque_1" xmlns="http://www.w3.org/2000/svg" xmlns:xlink="http://www.w3.org/1999/xlink" x="0px" y="0px"
	 viewBox="0 0 250 250" style="enable-background:new 0 0 250 250;" xml:space="preserve">
<style type="text/css">
	.st0{opacity:0.1;enable-background:new    ;}
	.st1{fill:#EDEDED;stroke:#5E5C74;stroke-width:8;stroke-linecap:round;stroke-linejoin:round;stroke-miterlimit:10;}
	.st2{fill:#A1DAF8;stroke:#5E5C74;stroke-width:8;stroke-linecap:round;stroke-linejoin:round;stroke-miterlimit:10;}
	.st3{fill:#E94364;stroke:#5D5C74;stroke-width:8;stroke-linecap:round;stroke-linejoin:round;stroke-miterlimit:10;}
</style>
<ellipse id="XMLID_17_" class="st0" cx="125" cy="217.2" rx="89.7" ry="15.4"/>
<rect x="67.8" y="28.5" class="st1" width="114.2" height="188.6"/>
<rect x="83.9" y="46.3" class="st2" width="81.9" height="127.7"/>
<circle class="st1" cx="127.6" cy="195.3" r="9.9"/>
<path class="st1" d="M176,17.7c-33.4,0-60.5,27.1-60.5,60.5c0,14.1,4.9,27.2,13,37.5c0.8,1,1.6,1.9,2.4,2.8c0.6,0.7,1.2,1.3,1.9,2
	l-7.9,13.2l19.4-4c9.2,5.7,20.1,9,31.8,9c33.4,0,60.5-27.1,60.5-60.5C236.6,44.8,209.5,17.7,176,17.7z"/>
<path id="XMLID_4_" class="st3" d="M203.5,84.1c0,15.1-12.3,26.1-27.4,26.1s-27.4-11-27.4-26.1c0-25.4,27.4-46.7,27.4-46.7
	S203.5,58.7,203.5,84.1z"/>
</svg>
