<?xml version="1.0" encoding="utf-8"?>
<!-- Generator: Adobe Illustrator 19.0.0, SVG Export Plug-In . SVG Version: 6.00 Build 0)  -->
<svg version="1.1" id="Calque_1" xmlns="http://www.w3.org/2000/svg" xmlns:xlink="http://www.w3.org/1999/xlink" x="0px" y="0px"
	 viewBox="0 0 250 250" style="enable-background:new 0 0 250 250;" xml:space="preserve">
<style type="text/css">
	.st0{opacity:0.1;}
	.st1{fill:#E3E3E3;stroke:#5E5C74;stroke-width:8;stroke-linecap:round;stroke-linejoin:round;stroke-miterlimit:10;}
	.st2{fill:#E94364;stroke:#5D5C74;stroke-width:8;stroke-linecap:round;stroke-linejoin:round;stroke-miterlimit:10;}
	.st3{fill:#FFFFFF;stroke:#5E5C74;stroke-width:8;stroke-linecap:round;stroke-linejoin:round;stroke-miterlimit:10;}
	.st4{fill:#E30613;stroke:#5E5C74;stroke-width:8;stroke-linecap:round;stroke-linejoin:round;stroke-miterlimit:10;}
	.st5{fill:#EEEDED;stroke:#5E5D75;stroke-width:8;stroke-linecap:round;stroke-linejoin:round;stroke-miterlimit:10;}
	.st6{fill:#8FB9E4;stroke:#5D5C74;stroke-width:4;stroke-linecap:round;stroke-linejoin:round;stroke-miterlimit:10;}
</style>
<g id="XMLID_2_">
	<ellipse id="XMLID_13_" class="st0" cx="125" cy="215" rx="101.2" ry="17.4"/>
	<g id="XMLID_3_">
		<g id="XMLID_9_">
			<path id="XMLID_12_" class="st1" d="M165.8,17.1H84.2c-14.4,0-26.1,11.7-26.1,26.1v122.6c0,14.4,11.7,26.1,26.1,26.1H113l0,20.1
				c0,1.7,1.4,3.2,3.2,3.2h10c1.7,0,3.2-1.4,3.2-3.2v-20.1h12.6l0,20.1c0,1.7,1.4,3.2,3.2,3.2h10c1.7,0,3.2-1.4,3.2-3.2v-20.1h7.7
				c14.4,0,26.1-11.7,26.1-26.1V43.2C191.9,28.8,180.2,17.1,165.8,17.1z"/>
			<path id="XMLID_10_" class="st2" d="M84.2,34c-5.1,0-9.2,4.1-9.2,9.2v122.6c0,5.1,4.1,9.2,9.2,9.2h81.6c5.1,0,9.2-4.1,9.2-9.2
				V43.2c0-5.1-4.1-9.2-9.2-9.2H84.2z"/>
		</g>
		<rect id="XMLID_8_" x="89" y="53.6" class="st3" width="72.1" height="72.9"/>
		<g id="XMLID_4_">
			<g id="XMLID_5_">
				<line id="XMLID_7_" class="st4" x1="102.3" y1="90.1" x2="147.7" y2="90.1"/>
				<line id="XMLID_6_" class="st4" x1="125" y1="67.4" x2="125" y2="112.8"/>
			</g>
		</g>
	</g>
</g>
<circle class="st5" cx="197.8" cy="161.3" r="39.4"/>
<ellipse id="XMLID_21_" class="st0" cx="197.8" cy="181.6" rx="10" ry="2.6"/>
<path id="XMLID_18_" class="st6" d="M197.8,142c-8.7,0-15.8,7.1-15.8,15.8c0,8.7,15.8,23.8,15.8,23.8s15.8-15,15.8-23.8
	C213.6,149.1,206.5,142,197.8,142z M197.8,166.7c-4.9,0-8.9-4-8.9-8.9c0-4.9,4-8.9,8.9-8.9c4.9,0,8.9,4,8.9,8.9
	S202.7,166.7,197.8,166.7z"/>
</svg>
